<?xml version="1.0" encoding="UTF-8" standalone="no"?>
<!-- Created with Inkscape (http://www.inkscape.org/) -->

<svg
   width="400"
   height="400"
   viewBox="0 0 105.83333 105.83333"
   version="1.1"
   id="svg1"
   inkscape:version="1.3 (0e150ed6c4, 2023-07-21)"
   sodipodi:docname="harmony.svg"
   xmlns:inkscape="http://www.inkscape.org/namespaces/inkscape"
   xmlns:sodipodi="http://sodipodi.sourceforge.net/DTD/sodipodi-0.dtd"
   xmlns="http://www.w3.org/2000/svg"
   xmlns:svg="http://www.w3.org/2000/svg">
  <sodipodi:namedview
     id="namedview1"
     pagecolor="#ffffff"
     bordercolor="#666666"
     borderopacity="1.0"
     inkscape:showpageshadow="2"
     inkscape:pageopacity="0.0"
     inkscape:pagecheckerboard="0"
     inkscape:deskcolor="#d1d1d1"
     inkscape:document-units="mm"
     inkscape:zoom="0.35589576"
     inkscape:cx="-495.93173"
     inkscape:cy="-77.269816"
     inkscape:window-width="1920"
     inkscape:window-height="1013"
     inkscape:window-x="-9"
     inkscape:window-y="-9"
     inkscape:window-maximized="1"
     inkscape:current-layer="layer1" />
  <defs
     id="defs1">
    <pattern
       id="EMFhbasepattern"
       patternUnits="userSpaceOnUse"
       width="6"
       height="6"
       x="0"
       y="0" />
  </defs>
  <g
     inkscape:label="Layer 1"
     inkscape:groupmode="layer"
     id="layer1"
     transform="translate(-60.339021,-122.30288)">
    <path
       style="fill:#f56738;stroke-width:1.22000007;stroke:none;stroke-opacity:1;fill-opacity:1;stroke-dasharray:none"
       d="m 69.932572,171.03565 c -1.543731,-0.63853 -2.318428,-2.66051 -1.572216,-4.10352 0.675641,-1.30654 1.430434,-1.61955 4.865457,-2.01765 1.741434,-0.20183 3.631326,-0.49169 4.19976,-0.64414 2.482258,-0.66571 4.939905,-2.81176 6.17308,-5.39041 0.726765,-1.51971 0.802547,-1.91295 0.796687,-4.13405 -0.0063,-2.40562 -0.03601,-2.52372 -1.485682,-5.91541 -0.813561,-1.90343 -1.479204,-3.7175 -1.479204,-4.03126 0,-0.31377 0.265098,-0.96386 0.589108,-1.44466 1.071656,-1.59023 2.592983,-1.94373 4.07251,-0.9463 0.709733,0.47847 1.199394,1.33584 2.766842,4.84461 1.047474,2.34479 2.346315,5.31828 2.886307,6.60773 l 0.98181,2.34447 -1.396219,1.62648 c -2.712833,3.16022 -4.339827,6.00027 -5.781221,10.09167 -0.325419,0.92371 -0.607063,1.70538 -0.625875,1.73707 -0.0473,0.0797 -13.607048,1.62454 -14.086815,1.60495 -0.213164,-0.008 -0.620111,-0.11204 -0.904329,-0.22958 z m 2.902754,-9.58504 c -3.430506,-0.84217 -5.401913,-3.31062 -5.457839,-6.83393 -0.04895,-3.0843 1.373963,-5.26789 4.297506,-6.59491 3.281773,-1.48961 7.599831,0.31136 9.138722,3.81157 0.970867,2.20824 0.406867,5.47568 -1.292101,7.48556 -1.384673,1.63807 -4.565814,2.65227 -6.686288,2.13171 z"
       id="path1"
       sodipodi:nodetypes="cssssssssssscsssccssssss" />
    <path
       style="fill:#f56738;stroke-width:1.22000007;stroke:none;stroke-opacity:1;fill-opacity:1;stroke-dasharray:none"
       d="m 86.581305,142.41449 c -0.617787,-1.55214 0.292552,-3.51678 1.847505,-3.98716 1.407892,-0.42588 2.158364,-0.10265 4.837597,2.08356 1.358274,1.10835 2.883136,2.26182 3.388595,2.56327 2.207221,1.31641 5.459008,1.58359 8.167798,0.67111 1.59642,-0.53777 1.93126,-0.75745 3.52018,-2.30944 1.72109,-1.68073 1.78495,-1.78448 3.20731,-5.18771 0.79824,-1.90992 1.63546,-3.65147 1.86048,-3.87011 0.22504,-0.21865 0.87604,-0.48154 1.44666,-0.58419 1.88732,-0.33955 3.201,0.50523 3.51664,2.26142 0.15141,0.84246 -0.12228,1.7911 -1.54655,5.3604 -0.95178,2.38523 -2.17931,5.38886 -2.72782,6.67472 l -0.99732,2.33792 -2.13948,0.13202 c -4.157,0.25654 -7.32771,1.06872 -11.266553,2.88605 -0.889262,0.41027 -1.646152,0.753 -1.681988,0.76159 -0.09018,0.0216 -10.647256,-8.62711 -10.967526,-8.98487 -0.142416,-0.15884 -0.351772,-0.52282 -0.465528,-0.80858 z m 8.897318,-4.59746 c -1.786536,-3.04728 -1.389903,-6.18135 1.098086,-8.67669 2.177995,-2.1844 4.735651,-2.68551 7.724681,-1.51344 3.35529,1.3157 5.07265,5.66768 3.63464,9.21053 -0.90725,2.23514 -3.64372,4.10755 -6.26916,4.28961 -2.139752,0.1484 -5.083938,-1.42642 -6.188247,-3.31001 z"
       id="path1-9"
       sodipodi:nodetypes="cssssssssssscsssccssssss" />
    <path
       style="fill:#f56738;stroke-width:1.22000007;stroke:none;stroke-opacity:1;fill-opacity:1;stroke-dasharray:none"
       d="m 118.84603,133.60833 c 0.60838,-1.55586 2.61494,-2.36968 4.0722,-1.65165 1.3194,0.65017 1.64701,1.39871 2.11181,4.8253 0.23564,1.73719 0.56215,3.62109 0.72562,4.18647 0.71383,2.46886 2.90723,4.88433 5.50936,6.06715 1.53334,0.69756 1.92817,0.76526 4.14874,0.71626 2.40504,-0.0529 2.52255,-0.0851 5.88542,-1.60035 1.88727,-0.8504 3.68805,-1.55118 4.00175,-1.55728 0.3137,-0.006 0.96882,0.24635 1.45583,0.56094 1.61076,1.04055 1.99377,2.55472 1.02527,4.05334 -0.46459,0.7189 -1.31228,1.22512 -4.78992,2.86046 -2.324,1.09285 -5.27168,2.44921 -6.5504,3.01418 l -2.32496,1.02718 -1.65329,-1.36435 c -3.21235,-2.65089 -6.08349,-4.22241 -10.20211,-5.584 -0.92988,-0.30737 -1.71686,-0.57381 -1.74891,-0.59201 -0.0805,-0.0463 -1.88866,-13.57292 -1.87839,-14.05297 0.005,-0.21331 0.1,-0.62218 0.21198,-0.90862 z m 9.63964,2.71593 c 0.77536,-3.44621 3.20503,-5.4652 6.72657,-5.5896 3.08277,-0.10886 5.29359,1.27135 6.67717,4.16853 1.55311,3.25221 -0.16361,7.60445 -3.63325,9.21108 -2.18898,1.01359 -5.46674,0.51318 -7.50926,-1.1464 -1.66467,-1.35258 -2.74049,-4.5134 -2.26123,-6.64361 z"
       id="path1-9-4"
       sodipodi:nodetypes="cssssssssssscsssccssssss" />
    <path
       style="fill:#f56738;stroke-width:1.22000007;stroke:none;stroke-opacity:1;fill-opacity:1;stroke-dasharray:none"
       d="m 147.92993,149.23376 c 1.5431,-0.64005 3.52064,0.2419 4.01337,1.78992 0.44609,1.40161 0.13371,2.15666 -2.01371,4.86708 -1.08868,1.37411 -2.22007,2.91542 -2.5142,3.42516 -1.2845,2.22596 -1.50484,5.48126 -0.55345,8.17662 0.56071,1.58851 0.78517,1.92015 2.35989,3.48656 1.70533,1.6967 1.80998,1.75908 5.23336,3.13229 1.9212,0.77066 3.67461,1.58272 3.89647,1.80459 0.22187,0.22186 0.4941,0.86899 0.60497,1.43809 0.36669,1.88224 -0.45908,3.20794 -2.21055,3.54883 -0.8402,0.16353 -1.79268,-0.0965 -5.38213,-1.46918 -2.39869,-0.91734 -5.41968,-2.1015 -6.71329,-2.63144 l -2.35204,-0.96355 -0.16281,-2.13737 c -0.31636,-4.15287 -1.17412,-7.31157 -3.04795,-11.22384 -0.42306,-0.88326 -0.77663,-1.63514 -0.78573,-1.67084 -0.0229,-0.0897 8.47291,-10.77037 8.826,-11.09576 0.15678,-0.14469 0.51771,-0.35926 0.80179,-0.47713 z m 4.72508,8.83021 c 3.02125,-1.83023 6.16072,-1.47876 8.69161,0.97305 2.21554,2.14633 2.75341,4.69651 1.62452,7.70209 -1.26726,3.37388 -5.59407,5.15374 -9.15725,3.76687 -2.24796,-0.87496 -4.15959,-3.58419 -4.37943,-6.20674 -0.17919,-2.13739 1.35306,-5.10395 3.22055,-6.23527 z"
       id="path1-1"
       sodipodi:nodetypes="cssssssssssscsssccssssss" />
    <path
       style="fill:#f56738;stroke-width:1.22000007;stroke:none;stroke-opacity:1;fill-opacity:1;stroke-dasharray:none"
       d="m 156.62742,180.74104 c 1.564,0.58713 2.40515,2.58235 1.70708,4.04927 -0.63206,1.32818 -1.37611,1.66596 -4.79604,2.17748 -1.73383,0.25931 -3.61309,0.61152 -4.17617,0.7827 -2.45889,0.74745 -4.8442,2.9736 -5.99141,5.59163 -0.6761,1.54293 -0.73883,1.93845 -0.65951,4.15816 0.0857,2.40409 0.11948,2.52113 1.68054,5.86302 0.87605,1.87548 1.60135,3.66654 1.61172,3.98013 0.01,0.31362 -0.23306,0.9721 -0.54099,1.46335 -1.01848,1.6248 -2.52727,2.02844 -4.03898,1.08049 -0.72519,-0.45473 -1.24293,-1.29542 -2.92557,-4.75045 -1.12446,-2.30886 -2.52094,-5.23774 -3.10329,-6.50865 l -1.05882,-2.31069 1.34166,-1.67178 c 2.60679,-3.24822 4.13898,-6.14054 5.44423,-10.27738 0.29472,-0.93395 0.55034,-1.72452 0.56809,-1.75681 0.0447,-0.0811 13.54587,-2.07374 14.02602,-2.07002 0.21336,0.003 0.62348,0.0914 0.91144,0.19955 z m -2.58413,9.6758 c 3.45649,0.72824 5.50847,3.13015 5.68089,6.64967 0.15127,3.08097 -1.19897,5.31044 -4.07702,6.73344 -3.23069,1.59734 -7.60597,-0.0598 -9.2598,-3.50721 -1.04336,-2.17492 -0.58774,-5.45923 1.04381,-7.52421 1.32973,-1.68297 4.47559,-2.80182 6.61212,-2.35169 z"
       id="path1-9-0"
       sodipodi:nodetypes="cssssssssssscsssccssssss" />
    <path
       style="fill:#f56738;fill-opacity:1;stroke:none;stroke-width:1.22;stroke-dasharray:none;stroke-opacity:1"
       d="m 140.13987,208.60095 c 0.63115,1.54678 -0.26264,3.51917 -1.81305,4.00295 -1.40417,0.43798 -2.15733,0.12241 -4.85536,-2.04171 -1.36781,-1.09658 -2.90255,-2.23687 -3.41059,-2.53396 -2.21851,-1.29732 -5.47248,-1.53644 -8.1733,-0.60056 -1.59189,0.55106 -1.92467,0.77402 -3.50015,2.33965 -1.7065,1.69553 -1.76949,1.79987 -3.16243,5.21519 -0.78175,1.91677 -1.6039,3.66544 -1.82704,3.88604 -0.22311,0.22063 -0.87186,0.48902 -1.44158,0.59659 -1.88433,0.35579 -3.20524,-0.47757 -3.53602,-2.231 -0.15864,-0.84112 0.10685,-1.79207 1.50027,-5.37353 0.93114,-2.39337 2.13272,-5.40747 2.67013,-6.69798 l 0.97712,-2.34648 2.13823,-0.15049 c 4.15464,-0.29233 7.31823,-1.13187 11.24123,-2.98316 0.88569,-0.41793 1.63963,-0.76713 1.67537,-0.77611 0.0902,-0.0217 10.72129,8.53493 11.04463,8.88991 0.14337,0.15802 0.35628,0.51977 0.47249,0.80453 z m -8.85732,4.67409 c 1.81277,3.03174 1.44316,6.16911 -1.02318,8.68582 -2.15907,2.2031 -4.71231,2.72626 -7.71132,1.58003 -3.36653,-1.28667 -5.12139,-5.62368 -3.714,-9.1788 0.88793,-2.2429 3.60816,-4.13884 6.23194,-4.34354 2.13837,-0.16683 5.09606,1.38245 6.21656,3.25649 z"
       id="path1-9-4-0"
       sodipodi:nodetypes="cssssssssssscsssccssssss" />
    <path
       style="fill:#f56738;fill-opacity:1;stroke:none;stroke-width:1.22;stroke-dasharray:none;stroke-opacity:1"
       d="m 108.11731,217.73909 c -0.59271,1.5619 -2.59087,2.39596 -4.0553,1.69267 -1.3259,-0.63678 -1.66105,-1.382 -2.16041,-4.80376 -0.25314,-1.73471 -0.59864,-3.61523 -0.76782,-4.1789 -0.73872,-2.46154 -2.956378,-4.85475 -5.570297,-6.01127 -1.540509,-0.6816 -1.935811,-0.74572 -4.155778,-0.6743 -2.404377,0.0771 -2.521547,0.11047 -5.868969,1.65969 -1.878587,0.86938 -3.672218,1.58831 -3.985826,1.59756 -0.313651,0.009 -0.971271,-0.23652 -1.461423,-0.54621 -1.621171,-1.02425 -2.019439,-2.53448 -1.066125,-4.04278 0.457322,-0.72356 1.299842,-1.23831 4.760818,-2.90866 2.312849,-1.11625 5.246695,-2.50231 6.519655,-3.08013 l 2.31445,-1.05059 1.667004,1.34759 c 3.238914,2.61833 6.125771,4.16079 10.257941,5.48076 0.93286,0.29803 1.72253,0.55647 1.75473,0.57433 0.081,0.0448 2.02556,13.55315 2.02013,14.0333 -0.003,0.21336 -0.0938,0.62311 -0.20278,0.9107 z m -9.666525,-2.61851 c -0.74052,3.45388 -3.149697,5.49729 -6.669821,5.65721 -3.081494,0.14037 -5.306152,-1.21785 -6.718904,-4.10092 -1.585844,-3.23637 0.08686,-7.60572 3.54012,-9.24728 2.178616,-1.03565 5.461287,-0.56835 7.520446,1.07054 1.67823,1.33571 2.785896,4.48553 2.328159,6.62045 z"
       id="path1-9-0-4"
       sodipodi:nodetypes="cssssssssssscsssccssssss" />
    <path
       style="fill:#f56738;fill-opacity:1;stroke:none;stroke-width:1.22;stroke-dasharray:none;stroke-opacity:1"
       d="m 78.177427,203.16622 c -1.56444,0.58598 -3.510064,-0.36444 -3.948584,-1.92858 -0.396994,-1.41631 -0.05852,-2.16001 2.181946,-4.79401 1.135866,-1.33535 2.320245,-2.83632 2.63198,-3.33551 1.361223,-2.17989 1.694795,-5.42553 0.837809,-8.15241 -0.504569,-1.6072 -0.717803,-1.94633 -2.236974,-3.56662 -1.645231,-1.75508 -1.747677,-1.82106 -5.121104,-3.31263 -1.893228,-0.83712 -3.617293,-1.7097 -3.83131,-1.93917 -0.213993,-0.22946 -0.463507,-0.8857 -0.554497,-1.45828 -0.300919,-1.89386 0.57047,-3.19003 2.332791,-3.4697 0.845376,-0.13418 1.788173,0.15935 5.327666,1.65574 2.365306,1.00031 5.343213,2.28894 6.617605,2.86361 l 2.317062,1.04487 0.08828,2.14174 c 0.171561,4.16137 0.918789,7.34802 2.655277,11.32316 0.392062,0.89745 0.719206,1.66119 0.727066,1.69719 0.01926,0.0908 -8.842831,10.46877 -9.207051,10.78166 -0.162106,0.1388 -0.529899,0.34107 -0.817921,0.44892 z m -4.414737,-8.98938 c -3.083157,1.72391 -6.208454,1.26331 -8.652437,-1.27513 -2.139435,-2.22216 -2.588186,-4.78951 -1.355315,-7.75395 1.383957,-3.32774 5.770118,-4.95584 9.282853,-3.44576 2.216145,0.95275 4.032249,3.7269 4.160649,6.3555 0.10464,2.14234 -1.529948,5.05374 -3.43575,6.11934 z"
       id="path1-9-4-0-4"
       sodipodi:nodetypes="cssssssssssscsssccssssss" />
    <circle
       style="fill:none;stroke:#f56738;stroke-width:2.0277;stroke-linecap:round;stroke-linejoin:round;stroke-opacity:1"
       id="path2"
       cx="113.62624"
       cy="175.83311"
       r="21.721746"
       inkscape:transform-center-x="-33.74075"
       inkscape:transform-center-y="-19.640148" />
    <circle
       style="fill:none;stroke:#f56738;stroke-width:1.16312;stroke-linecap:round;stroke-linejoin:round;stroke-opacity:1"
       id="path2-7"
       cx="113.62624"
       cy="175.83311"
       r="12.459871"
       inkscape:transform-center-x="-33.74075"
       inkscape:transform-center-y="-19.640148" />
    <circle
       style="fill:#f56738;fill-opacity:1;stroke:#d45500;stroke-width:0.396602;stroke-linecap:round;stroke-linejoin:round;stroke-dasharray:none"
       id="path2-7-4"
       cx="113.62624"
       cy="175.83311"
       r="4.2581263"
       inkscape:transform-center-x="-33.74075"
       inkscape:transform-center-y="-19.640148" />
  </g>
</svg>
