<?xml version="1.0" encoding="UTF-8" standalone="no"?>
<!-- Created with Inkscape (http://www.inkscape.org/) -->

<svg
   width="466.50449"
   height="493.97665"
   viewBox="0 0 123.42931 130.69799"
   version="1.1"
   id="svg1"
   sodipodi:docname="right-hand.svg"
   inkscape:version="1.3 (0e150ed6c4, 2023-07-21)"
   inkscape:export-filename="arrow-right.png"
   inkscape:export-xdpi="6"
   inkscape:export-ydpi="6"
   xmlns:inkscape="http://www.inkscape.org/namespaces/inkscape"
   xmlns:sodipodi="http://sodipodi.sourceforge.net/DTD/sodipodi-0.dtd"
   xmlns="http://www.w3.org/2000/svg"
   xmlns:svg="http://www.w3.org/2000/svg"
   xmlns:rdf="http://www.w3.org/1999/02/22-rdf-syntax-ns#"
   xmlns:cc="http://creativecommons.org/ns#">
  <sodipodi:namedview
     id="namedview1"
     pagecolor="#ffffff"
     bordercolor="#666666"
     borderopacity="1.0"
     inkscape:showpageshadow="2"
     inkscape:pageopacity="0.0"
     inkscape:pagecheckerboard="0"
     inkscape:deskcolor="#d1d1d1"
     inkscape:document-units="mm"
     showgrid="true"
     inkscape:zoom="1.3244834"
     inkscape:cx="227.25841"
     inkscape:cy="260.10141"
     inkscape:window-width="1920"
     inkscape:window-height="1013"
     inkscape:window-x="-9"
     inkscape:window-y="-9"
     inkscape:window-maximized="1"
     inkscape:current-layer="layer1">
    <inkscape:grid
       id="grid1"
       units="px"
       originx="-44.442002"
       originy="-7.8107117"
       spacingx="0.26458332"
       spacingy="0.26458334"
       empcolor="#002b40"
       empopacity="0.61960784"
       color="#0099e5"
       opacity="0.3254902"
       empspacing="5"
       dotted="false"
       gridanglex="30"
       gridanglez="30"
       visible="true"
       snapvisiblegridlinesonly="true" />
  </sodipodi:namedview>
  <defs
     id="defs1">
    <pattern
       id="EMFhbasepattern"
       patternUnits="userSpaceOnUse"
       width="6"
       height="6"
       x="0"
       y="0" />
  </defs>
  <g
     inkscape:label="Layer 1"
     inkscape:groupmode="layer"
     id="layer1"
     transform="translate(-11.758613,-2.0665841)">
    <path
       style="display:inline;fill:none;fill-opacity:1;stroke:#f56738;stroke-width:0.583427;stroke-linecap:round;stroke-linejoin:round;stroke-dasharray:none"
       d="m 115.97783,131.20644 c 0.97996,-1.42932 2.17191,-2.61031 4.10372,-4.066 2.05465,-1.54824 7.55698,-7.11558 9.20527,-9.31401 2.8715,-3.82991 4.58074,-8.22548 4.89337,-12.58408 0.077,-1.07373 0.2943,-2.68437 0.48284,-3.5792 0.72727,-3.451575 -0.22769,-6.875875 -2.9859,-10.706862 -0.43607,-0.605679 -1.4942,-1.993238 -2.35139,-3.083459 -0.85719,-1.090225 -2.42234,-3.253094 -3.47812,-4.806382 -3.89376,-5.728587 -6.8279,-9.397609 -15.00254,-18.760058 C 99.930405,51.805763 96.527924,47.361991 91.620412,39.198222 89.202963,35.176737 88.595744,33.976131 86.273593,28.626363 84.167132,23.773503 83.276221,21.93922 82.011059,19.8503 L 81.097785,18.342392 78.014326,16.792814 C 71.770809,13.655164 63.231097,9.7317348 57.711079,7.464826 56.114029,6.8089637 53.636248,5.6790119 52.204903,4.9538212 44.347887,0.97307133 37.506277,1.5558892 32.047227,6.6709983 c -1.00459,0.9412925 -3.1893,2.7786035 -4.85492,4.0829137 -1.66562,1.30431 -3.0284,2.415079 -3.0284,2.468375 0,0.257526 0.62193,-0.05811 3.97757,-2.018665 4.65002,-2.7168012 6.57989,-3.6825335 9.08245,-4.544969 1.84502,-0.6358339 2.26409,-0.6978749 4.66988,-0.691356 2.50585,0.00679 2.75722,0.049949 4.84543,0.8319214 3.204614,1.2000324 5.289798,2.2205164 9.598734,4.6975996 4.963639,2.853451 7.477084,4.105709 9.846204,4.905614 1.538349,0.519404 1.905088,0.725688 1.848741,1.03988 -0.08749,0.487863 -0.657123,0.942561 -1.180798,0.942561 -0.757047,0 -2.617908,-0.847247 -4.782657,-2.177533 -2.089235,-1.283881 -3.115644,-1.832269 -11.25565,-6.013655 -4.456774,-2.289372 -6.501674,-2.9163176 -9.470624,-2.9035957 -2.42827,0.010405 -3.79714,0.4212811 -6.24143,1.8734055 -0.8507,0.505395 -3.84913,2.1335012 -6.66318,3.6180122 -7.34815,3.876422 -10.71292,6.228598 -12.82367,8.964534 -0.81093,1.051117 -1.02051,1.555335 -1.46605,3.527106 -0.28592,1.265364 -0.72113,2.983487 -0.96715,3.81805 -1.14246,3.875681 -1.07962,5.701129 0.23435,6.806755 0.84641,0.71221 1.34555,0.652152 3.64974,-0.439137 4.99588,-2.366103 8.36262,-6.04056 7.88201,-8.602418 -0.0774,-0.412579 -0.47595,-1.10558 -0.88566,-1.540006 -0.98301,-1.042293 -1.59178,-2.746825 -0.98103,-2.746825 0.13128,0 0.94895,0.582829 1.81704,1.295174 2.36822,1.943331 2.56863,2.015627 4.96449,1.790885 3.72464,-0.349388 6.42685,-2.204489 7.99352,-5.487661 0.40366,-0.84593 0.78348,-1.543416 0.84405,-1.549972 0.0606,-0.0066 0.11012,0.763505 0.11012,1.711243 0,1.49722 0.0768,1.839181 0.58599,2.607995 1.13455,1.713182 3.69869,2.987962 9.655508,4.800288 3.256434,0.99075 4.942267,1.986552 7.284162,4.302673 2.998191,2.965191 4.921561,6.295939 5.943874,10.293144 0.521293,2.038232 0.567491,5.374301 0.09932,7.171747 -0.762207,2.926308 -3.026949,6.415947 -6.258534,9.643495 -4.657552,4.651732 -10.08616,7.67743 -23.47751,13.085456 -9.54825,3.856013 -13.98538,6.555152 -17.06093,10.378283 -2.10156,2.612392 -3.53189,6.013037 -3.53189,8.397157 0,1.596065 0.40518,1.52063 3.6915,-0.687239 1.98272,-1.332069 3.369,-1.836603 4.22204,-1.536601 0.2947,0.103637 0.52673,0.278729 0.51564,0.389099 -0.0111,0.110364 -1.27177,0.903253 -2.80152,1.761976 -2.75744,1.547885 -4.30618,2.618862 -4.30618,2.977792 0,0.102491 0.35436,0.252826 0.78747,0.334077 0.71306,0.133774 1.0096,0.0033 3.13852,-1.381016 10.99423,-7.148883 21.8652,-10.994357 33.846386,-11.972758 5.104317,-0.416827 15.056704,-0.35459 18.280507,0.114317 6.348074,0.923331 11.151124,2.763391 15.354903,5.882495 2.963347,2.198733 10.936355,13.184185 18.055927,24.878015 3.12376,5.13075 9.77142,16.43721 11.16892,18.99631 0.51267,0.93881 0.97105,1.70692 1.01862,1.70692 0.0476,0 0.47721,-0.56989 0.95477,-1.26642 z"
       id="path2"
       inkscape:label="mano" />
  </g>
  <metadata
     id="metadata2">
    <rdf:RDF>
      <cc:Work
         rdf:about="" />
    </rdf:RDF>
  </metadata>
</svg>
