<?xml version="1.0" encoding="UTF-8" standalone="no"?>
<!-- Created with Inkscape (http://www.inkscape.org/) -->

<svg
   width="270"
   height="270"
   viewBox="0 0 71.437499 71.4375"
   version="1.1"
   id="svg1"
   inkscape:version="1.3 (0e150ed6c4, 2023-07-21)"
   sodipodi:docname="teamwork.svg"
   xmlns:inkscape="http://www.inkscape.org/namespaces/inkscape"
   xmlns:sodipodi="http://sodipodi.sourceforge.net/DTD/sodipodi-0.dtd"
   xmlns="http://www.w3.org/2000/svg"
   xmlns:svg="http://www.w3.org/2000/svg">
  <sodipodi:namedview
     id="namedview1"
     pagecolor="#ffffff"
     bordercolor="#666666"
     borderopacity="1.0"
     inkscape:showpageshadow="2"
     inkscape:pageopacity="0.0"
     inkscape:pagecheckerboard="0"
     inkscape:deskcolor="#d1d1d1"
     inkscape:document-units="mm"
     inkscape:zoom="0.70710678"
     inkscape:cx="37.476659"
     inkscape:cy="-14.849242"
     inkscape:window-width="1920"
     inkscape:window-height="1013"
     inkscape:window-x="-9"
     inkscape:window-y="-9"
     inkscape:window-maximized="1"
     inkscape:current-layer="layer1" />
  <defs
     id="defs1" />
  <g
     inkscape:label="Capa 1"
     inkscape:groupmode="layer"
     id="layer1"
     transform="translate(-70.760429,-53.309484)">
    <path
       style="fill:#f56738;fill-opacity:1;stroke:#000000;stroke-width:0.52916667;stroke-linecap:butt;stroke-linejoin:miter;stroke-opacity:1;stroke-dasharray:none"
       d="m 92.644791,101.05468 1.5836,0.20295 2.97733,1.29173 1.79299,1.27007 c 16.315569,-0.97515 25.135789,-0.21702 40.932039,0.53889 l 0.0741,12.12106 c -13.50687,1.47523 -20.8429,1.31062 -35.83325,-0.18111 -10.120539,2.53355 -7.047539,3.22805 -15.074879,3.57063 -1.41494,0.0604 -4.42847,-0.20331 -12.13223,-2.67973 -1.322534,-0.42513 -1.01659,-3.30399 -0.27196,-3.2706 2.18052,0.0978 7.92262,1.33983 7.73581,0.78855 -0.0621,-0.18338 -0.67792,-0.0655 -0.21833,-0.0873 0.27542,-0.0131 -8.41564,-0.23099 -8.990134,-1.64579 -0.32604,-0.80294 -0.10802,-1.66577 0.29256,-2.42264 0.753764,-1.42414 -0.0146,0.15034 8.273214,0.62974 0.39323,0.0228 -8.856694,-0.66231 -9.038124,-1.72619 -0.2455,-1.43961 -0.16399,-2.44775 -0.0185,-2.77568 0.44373,-1.00029 8.817954,0.45911 9.167514,0.50261 0.59193,0.0737 0.55495,0.11936 0.39068,-0.11181 -0.16052,-0.22587 -7.46464,-0.62073 -8.559614,-1.12553 -0.44344,-0.20444 -0.26231,-1.59864 -0.19468,-2.14304 0.18177,-1.46298 8.540164,-1.36143 12.782644,-0.8446 1.21239,0.1477 4.54434,0.93155 4.12287,1.07066 z"
       id="path1-1-6"
       sodipodi:nodetypes="cccccccssssssssssssssscc" />
    <path
       style="fill:#141414;fill-opacity:1;stroke:#f56738;stroke-width:0.529167;stroke-linecap:round;stroke-linejoin:round;stroke-dasharray:none;stroke-opacity:1"
       d="m 118.09081,103.85273 0.20295,-1.5836 1.29173,-2.977334 1.27007,-1.79299 c -0.97515,-16.31557 -0.21702,-25.13579 0.53889,-40.93204 l 12.12106,-0.0741 c 1.47523,13.50687 1.31062,20.8429 -0.18111,35.83325 2.53355,10.120544 3.22805,7.04754 3.57063,15.074884 0.0604,1.41494 -0.20331,4.42847 -2.67973,12.13223 -0.42513,1.32253 -3.30399,1.01659 -3.2706,0.27196 0.0978,-2.18052 1.33983,-7.92262 0.78855,-7.73581 -0.18338,0.0621 -0.0655,0.67792 -0.0873,0.21833 -0.0131,-0.27542 -0.23099,8.41564 -1.64579,8.99013 -0.80294,0.32604 -1.66577,0.10802 -2.42264,-0.29256 -1.42414,-0.75376 0.15034,0.0146 0.62974,-8.27321 0.0228,-0.39323 -0.66231,8.85669 -1.72619,9.03812 -1.43961,0.2455 -2.44775,0.16399 -2.77568,0.0185 -1.00029,-0.44373 0.45911,-8.81795 0.50261,-9.16751 0.0737,-0.59193 0.11936,-0.55495 -0.11181,-0.39068 -0.22587,0.16052 -0.62073,7.46464 -1.12553,8.55961 -0.20444,0.44344 -1.59864,0.26231 -2.14304,0.19468 -1.46298,-0.18177 -1.36143,-8.54016 -0.8446,-12.78264 0.1477,-1.21239 0.93155,-4.54434 1.07066,-4.12287 z"
       id="path1-1"
       sodipodi:nodetypes="cccccccssssssssssssssscc" />
    <path
       style="fill:#141414;fill-opacity:1;stroke:#f56738;stroke-width:0.52916667;stroke-linecap:round;stroke-linejoin:round;stroke-opacity:1;stroke-dasharray:none"
       d="m 120.31151,77.589147 -1.58359,-0.202952 -2.97733,-1.291734 -1.79299,-1.270067 C 97.642036,75.799546 88.821814,75.041418 73.025564,74.285503 l -0.07414,-12.121055 c 13.506868,-1.475233 20.842895,-1.310625 35.833246,0.181111 10.12054,-2.533555 7.04754,-3.228051 15.07486,-3.57063 1.41494,-0.06039 4.42847,0.203305 12.13223,2.679724 1.32253,0.425134 1.01659,3.30399 0.27196,3.2706 -2.18052,-0.09777 -7.92262,-1.339825 -7.73581,-0.788553 0.0621,0.183385 0.67792,0.06554 0.21833,0.08734 -0.27542,0.01306 8.41564,0.230993 8.99013,1.645798 0.32604,0.802938 0.10802,1.665769 -0.29256,2.422641 -0.75376,1.424136 0.0146,-0.150349 -8.27321,-0.629741 -0.39323,-0.02275 8.85669,0.662306 9.03812,1.726187 0.2455,1.439608 0.16399,2.447749 0.0185,2.775681 -0.44373,1.000287 -8.81795,-0.459107 -9.16751,-0.502608 -0.59193,-0.07367 -0.55495,-0.119363 -0.39068,0.111807 0.16052,0.225873 7.46464,0.620726 8.55961,1.125531 0.44344,0.204435 0.26231,1.598642 0.19468,2.143036 -0.18177,1.462983 -8.54016,1.361433 -12.78264,0.844602 -1.21239,-0.147697 -4.54433,-0.931546 -4.12286,-1.07066 z"
       id="path1"
       sodipodi:nodetypes="cccccccssssssssssssssscc" />
    <path
       style="fill:#141414;fill-opacity:1;stroke:#f56738;stroke-width:0.52916667;stroke-linecap:round;stroke-linejoin:bevel;stroke-opacity:1;stroke-dasharray:none"
       d="m 95.000033,75.202208 -0.20295,1.5836 -1.29173,2.97733 -1.27007,1.79299 c 0.97515,16.315575 0.21702,25.135782 -0.53889,40.932032 l -12.12106,0.0741 c -1.47523,-13.50687 -1.31062,-20.8429 0.18111,-35.833237 -2.53355,-10.120545 -3.22805,-7.047545 -3.570633,-15.074885 -0.0604,-1.41494 -0.25666,-3.442813 2.21976,-11.146573 0.42513,-1.322534 3.30399,-1.01659 3.2706,-0.27196 -0.0978,2.18052 -0.879857,6.936963 -0.328577,6.750153 0.18338,-0.0621 0.0655,-0.67792 0.0873,-0.21833 0.0131,0.27542 -0.228983,-7.429983 1.185817,-8.004477 0.80294,-0.32604 1.757653,-0.246985 2.42264,0.29256 0.767035,0.622343 -0.15034,-0.0146 -0.62974,8.273214 -0.0228,0.39323 0.721817,-7.911111 1.529059,-8.627433 0.683939,-0.606908 2.604204,-0.461286 3.022094,-0.117067 0.667987,0.550227 -0.163409,8.292271 -0.206909,8.641831 -0.0737,0.59193 -0.0044,-0.217148 0.226803,-0.381418 0.22587,-0.16052 0.160757,-6.478983 0.665557,-7.573957 0.20444,-0.44344 1.59864,-0.26231 2.14304,-0.19468 1.46298,0.18177 1.821403,7.554507 1.304573,11.796987 -0.1477,1.21239 -0.93155,4.54434 -1.07066,4.12287 z"
       id="path1-1-6-6"
       sodipodi:nodetypes="cccccccssssssssssssssscc" />
    <path
       style="fill:#f56738;fill-opacity:1;stroke:#000000;stroke-width:0.52916667;stroke-linecap:round;stroke-linejoin:round;stroke-opacity:1;stroke-dasharray:none"
       d="m 117.90293,117.40117 c -4.53739,-0.39752 1.18119,0.38133 -13.80916,-1.1104 -10.120541,2.53355 -7.047541,3.22805 -15.074881,3.57063 -1.41494,0.0604 -4.42847,-0.20331 -12.13223,-2.67973 -1.322534,-0.42513 -1.01659,-3.30399 -0.27196,-3.2706 2.18052,0.0978 7.92262,1.33983 7.73581,0.78855 -0.0621,-0.18338 -0.67792,-0.0655 -0.21833,-0.0873 0.27542,-0.0131 -8.41564,-0.23099 -8.990134,-1.64579 -0.32604,-0.80294 -0.10802,-1.66577 0.29256,-2.42264 0.753764,-1.42414 -0.0146,0.15034 8.273214,0.62974 0.39323,0.0228 -8.856694,-0.66231 -9.038124,-1.72619 -0.2455,-1.43961 -0.16399,-2.44775 -0.0185,-2.77568 0.44373,-1.00029 8.817954,0.45911 9.167514,0.50261 0.59193,0.0737 0.55495,0.11936 0.39068,-0.11181 -0.16052,-0.22587 -7.46464,-0.62073 -8.559614,-1.12553 -0.44344,-0.20444 -0.26231,-1.59864 -0.19468,-2.14304 0.18177,-1.46298 8.540164,-1.36143 12.782644,-0.8446 1.21239,0.1477 4.54434,0.93155 4.12287,1.07066 l 0.20635,-2.97287 1.5836,0.20295 2.97733,1.29173 1.79299,1.27007 c 12.133781,-0.48727 14.785901,-0.63423 18.327151,-0.43686"
       id="path1-1-6-1"
       sodipodi:nodetypes="ccssssssssssssssscccccc" />
  </g>
</svg>
