<?xml version="1.0" encoding="UTF-8" standalone="no"?>
<!-- Created with Inkscape (http://www.inkscape.org/) -->

<svg
   width="466.50449"
   height="493.97665"
   viewBox="0 0 123.42931 130.69799"
   version="1.1"
   id="svg1"
   sodipodi:docname="left-hand.svg"
   inkscape:version="1.3 (0e150ed6c4, 2023-07-21)"
   inkscape:export-filename="arrow-right.png"
   inkscape:export-xdpi="6"
   inkscape:export-ydpi="6"
   xmlns:inkscape="http://www.inkscape.org/namespaces/inkscape"
   xmlns:sodipodi="http://sodipodi.sourceforge.net/DTD/sodipodi-0.dtd"
   xmlns="http://www.w3.org/2000/svg"
   xmlns:svg="http://www.w3.org/2000/svg"
   xmlns:rdf="http://www.w3.org/1999/02/22-rdf-syntax-ns#"
   xmlns:cc="http://creativecommons.org/ns#">
  <sodipodi:namedview
     id="namedview1"
     pagecolor="#ffffff"
     bordercolor="#666666"
     borderopacity="1.0"
     inkscape:showpageshadow="2"
     inkscape:pageopacity="0.0"
     inkscape:pagecheckerboard="0"
     inkscape:deskcolor="#d1d1d1"
     inkscape:document-units="mm"
     showgrid="true"
     inkscape:zoom="1.3244834"
     inkscape:cx="375.99565"
     inkscape:cy="216.31075"
     inkscape:window-width="1920"
     inkscape:window-height="1013"
     inkscape:window-x="-9"
     inkscape:window-y="-9"
     inkscape:window-maximized="1"
     inkscape:current-layer="layer1">
    <inkscape:grid
       id="grid1"
       units="px"
       originx="-44.442002"
       originy="-7.8107117"
       spacingx="0.26458332"
       spacingy="0.26458334"
       empcolor="#002b40"
       empopacity="0.61960784"
       color="#0099e5"
       opacity="0.3254902"
       empspacing="5"
       dotted="false"
       gridanglex="30"
       gridanglez="30"
       visible="true"
       snapvisiblegridlinesonly="true" />
  </sodipodi:namedview>
  <defs
     id="defs1">
    <pattern
       id="EMFhbasepattern"
       patternUnits="userSpaceOnUse"
       width="6"
       height="6"
       x="0"
       y="0" />
  </defs>
  <g
     inkscape:label="Layer 1"
     inkscape:groupmode="layer"
     id="layer1"
     transform="translate(-11.758613,-2.0665841)">
    <path
       style="display:inline;fill:#f56738;fill-opacity:1;stroke:#f56738;stroke-width:0.583427;stroke-linecap:round;stroke-linejoin:round;stroke-dasharray:none"
       d="m 30.96871,131.20644 c -0.97996,-1.42932 -2.171917,-2.61031 -4.103727,-4.066 -2.054645,-1.54824 -7.556975,-7.11558 -9.205268,-9.31401 -2.871498,-3.82991 -4.580736,-8.22548 -4.893371,-12.58408 -0.07702,-1.07373 -0.294295,-2.68437 -0.48284,-3.5792 -0.727264,-3.451575 0.227696,-6.875875 2.985902,-10.706862 0.436073,-0.605679 1.494198,-1.993238 2.351389,-3.083459 0.85719,-1.090225 2.422346,-3.253094 3.478124,-4.806382 3.893757,-5.728587 6.827897,-9.397609 15.002536,-18.760058 10.914677,-12.500626 14.317158,-16.944398 19.22467,-25.108167 2.417449,-4.021485 3.024668,-5.222091 5.346819,-10.571859 2.106461,-4.85286 2.997372,-6.687143 4.262534,-8.776063 l 0.913274,-1.507908 3.083459,-1.549578 c 6.243517,-3.13765 14.783229,-7.0610792 20.303247,-9.327988 1.59705,-0.6558623 4.074831,-1.7858141 5.506176,-2.5110048 7.857016,-3.98074987 14.698626,-3.397932 20.157676,1.7171771 1.00459,0.9412925 3.1893,2.7786035 4.85492,4.0829137 1.66562,1.30431 3.0284,2.415079 3.0284,2.468375 0,0.257526 -0.62193,-0.05811 -3.97757,-2.018665 -4.65002,-2.7168012 -6.57989,-3.6825335 -9.08245,-4.544969 -1.84502,-0.6358339 -2.26409,-0.6978749 -4.66988,-0.691356 -2.50585,0.00679 -2.75722,0.049949 -4.84543,0.8319214 -3.204614,1.2000324 -5.289798,2.2205164 -9.598734,4.6975996 -4.963639,2.853451 -7.477084,4.105709 -9.846204,4.905614 -1.538349,0.519404 -1.905088,0.725688 -1.848741,1.03988 0.08749,0.487863 0.657123,0.942561 1.180798,0.942561 0.757047,0 2.617908,-0.847247 4.782657,-2.177533 2.089235,-1.283881 3.115644,-1.832269 11.25565,-6.013655 4.456774,-2.289372 6.501674,-2.9163176 9.470624,-2.9035957 2.42827,0.010405 3.79714,0.4212811 6.24143,1.8734055 0.8507,0.505395 3.84913,2.1335012 6.66318,3.6180122 7.34815,3.876422 10.71292,6.228598 12.82367,8.964534 0.81093,1.051117 1.02051,1.555335 1.46605,3.527106 0.28592,1.265364 0.72113,2.983487 0.96715,3.81805 1.14246,3.875681 1.07962,5.701129 -0.23435,6.806755 -0.84641,0.71221 -1.34555,0.652152 -3.64974,-0.439137 -4.99588,-2.366103 -8.36262,-6.04056 -7.88201,-8.602418 0.0774,-0.412579 0.47595,-1.10558 0.88566,-1.540006 0.98301,-1.042293 1.59178,-2.746825 0.98103,-2.746825 -0.13128,0 -0.94895,0.582829 -1.81704,1.295174 -2.36822,1.943331 -2.56863,2.015627 -4.96449,1.790885 -3.72464,-0.349388 -6.42685,-2.204489 -7.99352,-5.487661 -0.40366,-0.84593 -0.78348,-1.543416 -0.84405,-1.549972 -0.0606,-0.0066 -0.11012,0.763505 -0.11012,1.711243 0,1.49722 -0.0768,1.839181 -0.58599,2.607995 -1.13455,1.713182 -3.69869,2.987962 -9.655508,4.800288 -3.256434,0.99075 -4.942267,1.986552 -7.284162,4.302673 -2.998191,2.965191 -4.921561,6.295939 -5.943874,10.293144 -0.521293,2.038232 -0.567491,5.374301 -0.09932,7.171747 0.762207,2.926308 3.026949,6.415947 6.258534,9.643495 4.657552,4.651732 10.08616,7.67743 23.47751,13.085456 9.54825,3.856013 13.98538,6.555152 17.06093,10.378283 2.10156,2.612392 3.53189,6.013037 3.53189,8.397157 0,1.596065 -0.40518,1.52063 -3.6915,-0.687239 -1.98272,-1.332069 -3.369,-1.836603 -4.22204,-1.536601 -0.2947,0.103637 -0.52673,0.278729 -0.51564,0.389099 0.0111,0.110364 1.27177,0.903253 2.80152,1.761976 2.75744,1.547885 4.30618,2.618862 4.30618,2.977792 0,0.102491 -0.35436,0.252826 -0.78747,0.334077 -0.71306,0.133774 -1.0096,0.0033 -3.13852,-1.381016 C 118.65451,85.718678 107.78354,81.873204 95.802354,80.894803 90.698037,80.477976 80.74565,80.540213 77.521847,81.00912 71.173773,81.932451 66.370723,83.772511 62.166944,86.891615 59.203597,89.090348 51.230589,100.0758 44.111012,111.76963 c -3.12376,5.13075 -9.771417,16.43721 -11.168915,18.99631 -0.512672,0.93881 -0.971047,1.70692 -1.018617,1.70692 -0.04757,0 -0.477217,-0.56989 -0.95477,-1.26642 z"
       id="path2"
       inkscape:label="mano" />
  </g>
  <metadata
     id="metadata2">
    <rdf:RDF>
      <cc:Work
         rdf:about="" />
    </rdf:RDF>
  </metadata>
</svg>
